<svg width="36" height="36" viewBox="0 0 36 36" fill="none" xmlns="http://www.w3.org/2000/svg">
<g clip-path="url(#clip0_188_1110)">
<path d="M35.4594 22.3542C33.0553 31.9971 23.2886 37.8657 13.6445 35.461C4.0044 33.0568 -1.86416 23.2896 0.541087 13.6472C2.94409 4.00316 12.7108 -1.86597 22.352 0.538159C31.9955 2.94228 37.8635 12.7107 35.4594 22.3542Z" fill="#E8E8E8"/>
<g clip-path="url(#clip1_188_1110)">
<path d="M18.0021 6.42871L18.1426 6.95611V22.2585L18.0021 22.4134L11.5756 18.2147L18.0021 6.42871Z" fill="#343434"/>
<path d="M18.002 6.42871L24.4287 18.2147L18.002 22.4134V14.9861V6.42871Z" fill="#8C8C8C"/>
<path d="M18.0019 23.758L18.0811 23.8647V29.3157L18.0019 29.5712L11.5714 19.5615L18.0019 23.758Z" fill="#3C3C3B"/>
<path d="M18.002 29.5712V23.758L24.4287 19.5615L18.002 29.5712Z" fill="#8C8C8C"/>
<path d="M18.002 22.4132L11.5754 18.2145L18.002 14.9858V22.4132Z" fill="#141414"/>
<path d="M24.4287 18.2145L18.002 22.4132V14.9858L24.4287 18.2145Z" fill="#393939"/>
</g>
</g>
<defs>
<clipPath id="clip0_188_1110">
<rect width="36" height="36" fill="white"/>
</clipPath>
<clipPath id="clip1_188_1110">
<rect width="12.8571" height="23.1429" fill="white" transform="matrix(-1 0 0 1 24.4287 6.42871)"/>
</clipPath>
</defs>
</svg>
