<svg width="16" height="16" viewBox="0 0 16 16" fill="none" xmlns="http://www.w3.org/2000/svg">
<path d="M3.32752 15C3.68158 15 4.02114 14.8525 4.2715 14.5899C4.52186 14.3274 4.66251 13.9713 4.66251 13.6V9.4C4.66251 9.0287 4.52186 8.6726 4.2715 8.41005C4.02114 8.1475 3.68158 8 3.32752 8V7.3C3.32752 6.00044 3.81979 4.7541 4.69605 3.83518C5.57232 2.91625 6.76078 2.4 8 2.4C9.23922 2.4 10.4277 2.91625 11.3039 3.83518C12.1802 4.7541 12.6725 6.00044 12.6725 7.3V8C12.3184 8 11.9789 8.1475 11.7285 8.41005C11.4781 8.6726 11.3375 9.0287 11.3375 9.4V13.6H9.335C9.15796 13.6 8.98818 13.6737 8.863 13.805C8.73782 13.9363 8.6675 14.1143 8.6675 14.3C8.6675 14.4857 8.73782 14.6637 8.863 14.795C8.98818 14.9263 9.15796 15 9.335 15H12.6725C13.4374 14.9976 14.1784 14.7197 14.7713 14.2128C15.3642 13.7059 15.7731 13.0008 15.9295 12.2156C16.0859 11.4303 15.9803 10.6125 15.6304 9.89915C15.2805 9.18577 14.7076 8.62008 14.0075 8.2968V7.3C14.0075 5.62914 13.3746 4.02671 12.2479 2.84523C11.1213 1.66375 9.59328 1 8 1C6.40672 1 4.87869 1.66375 3.75207 2.84523C2.62545 4.02671 1.99252 5.62914 1.99252 7.3V8.2968C1.29242 8.62008 0.719468 9.18577 0.36958 9.89915C0.0196916 10.6125 -0.0858943 11.4303 0.0704982 12.2156C0.226891 13.0008 0.635769 13.7059 1.22868 14.2128C1.8216 14.7197 2.56255 14.9976 3.32752 15Z" fill="#FFF001"/>
</svg>
