<svg width="36" height="36" viewBox="0 0 36 36" fill="none" xmlns="http://www.w3.org/2000/svg">
<g clip-path="url(#clip0_188_1132)">
<path d="M35.4594 22.3542C33.0553 31.9971 23.2886 37.8657 13.6445 35.461C4.0044 33.0568 -1.86416 23.2896 0.541087 13.6472C2.94409 4.00316 12.7108 -1.86597 22.352 0.538159C31.9955 2.94228 37.8635 12.7107 35.4594 22.3542Z" fill="#F7931A"/>
<path d="M25.9366 15.4352C26.2949 13.04 24.4713 11.7525 21.9777 10.8935L22.7866 7.64905L20.8117 7.15686L20.0242 10.3159C19.505 10.1865 18.9717 10.0644 18.4419 9.94348L19.235 6.76367L17.2612 6.27148L16.4517 9.51486C16.022 9.41698 15.6001 9.32023 15.1906 9.21842L15.1929 9.2083L12.4692 8.52823L11.9439 10.6376C11.9439 10.6376 13.4092 10.9734 13.3782 10.9942C14.1781 11.1939 14.3227 11.7232 14.2985 12.1429L13.3771 15.839C13.4322 15.8531 13.5037 15.8734 13.5824 15.9049C13.5166 15.8885 13.4463 15.8705 13.3737 15.8531L12.0822 21.0309C11.9844 21.2739 11.7363 21.6384 11.1772 21.5C11.1969 21.5287 9.74167 21.1417 9.74167 21.1417L8.76123 23.4024L11.3313 24.0431C11.8094 24.1629 12.278 24.2884 12.7392 24.4065L11.9219 27.6881L13.8946 28.1803L14.704 24.9335C15.2429 25.0798 15.766 25.2148 16.2779 25.3419L15.4713 28.5735L17.4462 29.0657L18.2635 25.7902C21.6312 26.4275 24.1636 26.1705 25.2295 23.1245C26.0885 20.672 25.1868 19.2574 23.4149 18.3349C24.7053 18.0373 25.6773 17.1885 25.9366 15.4352ZM21.4242 21.7627C20.8139 24.2152 16.6846 22.8894 15.3459 22.557L16.4304 18.2094C17.7691 18.5435 22.0621 19.205 21.4242 21.7627ZM22.0351 15.3997C21.4782 17.6306 18.0414 16.4972 16.9265 16.2193L17.9097 12.2762C19.0246 12.554 22.615 13.0727 22.0351 15.3997Z" fill="white"/>
</g>
<defs>
<clipPath id="clip0_188_1132">
<rect width="36" height="36" fill="white"/>
</clipPath>
</defs>
</svg>
