<svg width="20" height="20" viewBox="0 0 20 20" fill="none" xmlns="http://www.w3.org/2000/svg">
<path d="M10 2C12.1217 2 14.1566 2.84285 15.6569 4.34315C17.1571 5.84344 18 7.87827 18 10C18 12.1217 17.1571 14.1566 15.6569 15.6569C14.1566 17.1571 12.1217 18 10 18C7.87827 18 5.84344 17.1571 4.34315 15.6569C2.84285 14.1566 2 12.1217 2 10C2 7.87827 2.84285 5.84344 4.34315 4.34315C5.84344 2.84285 7.87827 2 10 2ZM10.424 5.41943C9.49372 5.41943 8.76457 5.68343 8.224 6.21143C7.67086 6.73943 7.40686 7.46857 7.40686 8.39886H8.84C8.84 7.87086 8.94057 7.456 9.15429 7.16686C9.39314 6.81486 9.78286 6.65143 10.336 6.65143C10.7634 6.65143 11.1029 6.76457 11.3417 7.00343C11.568 7.24229 11.6937 7.56914 11.6937 7.984C11.6937 8.29829 11.5806 8.6 11.3543 8.87657L11.2034 9.05257C10.3863 9.78171 9.896 10.3097 9.73257 10.6491C9.55657 10.9886 9.48114 11.4034 9.48114 11.8811V12.0571H10.9269V11.8811C10.9269 11.5794 10.9897 11.3154 11.1154 11.064C11.2286 10.8377 11.392 10.624 11.6183 10.4354C12.2217 9.90743 12.5863 9.568 12.6994 9.44229C13.0011 9.04 13.1646 8.52457 13.1646 7.896C13.1646 7.12914 12.9131 6.52571 12.4103 6.08571C11.9074 5.63314 11.2411 5.41943 10.424 5.41943ZM10.1977 12.6731C9.94139 12.6662 9.69276 12.7611 9.50629 12.9371C9.41422 13.0239 9.34188 13.1294 9.29416 13.2465C9.24644 13.3636 9.22446 13.4896 9.22971 13.616C9.22971 13.8926 9.31771 14.1189 9.50629 14.2949C9.69136 14.4745 9.93981 14.5739 10.1977 14.5714C10.4743 14.5714 10.7006 14.4834 10.8891 14.3074C10.9832 14.2189 11.0575 14.1116 11.1073 13.9925C11.1571 13.8734 11.1813 13.7451 11.1783 13.616C11.1807 13.49 11.1574 13.3648 11.1099 13.2481C11.0623 13.1314 10.9915 13.0256 10.9017 12.9371C10.7104 12.7608 10.4578 12.6661 10.1977 12.6731Z" fill="#FFF001"/>
</svg>
