<svg width="20" height="20" viewBox="0 0 20 20" fill="none" xmlns="http://www.w3.org/2000/svg">
<path fill-rule="evenodd" clip-rule="evenodd" d="M18.8086 10.1424L16.2726 7.60026C16.0179 7.3457 15.6074 7.3457 15.3545 7.602C15.1016 7.85831 15.1024 8.27154 15.3562 8.52611L16.7767 9.95062H14.2346C14.2433 10.3865 14.2433 10.8224 14.2346 11.2583H16.7784L15.3562 12.6846C15.1024 12.9391 15.1016 13.3532 15.3545 13.6095C15.4809 13.7377 15.6481 13.8013 15.8144 13.8013C15.9798 13.8013 16.1461 13.7377 16.2726 13.6113L18.8086 11.0683C18.9316 10.9462 19 10.7788 19 10.6053C19 10.4319 18.9316 10.2653 18.8086 10.1424Z" fill="#FF6B6B"/>
<path fill-rule="evenodd" clip-rule="evenodd" d="M7.08884 10.6046C7.08884 10.2472 7.37466 9.95077 7.73844 9.95077L14.2346 9.95062C14.2259 8.85216 14.1651 7.75385 14.0785 6.65539V6.64667C13.758 3.13333 12.173 2 7.58253 2C1 2 1 4.48462 1 10.5C1 16.5154 1 19 7.58253 19C12.173 19 13.758 17.8667 14.0785 14.3446C14.1651 13.3246 14.2173 12.2957 14.2346 11.2583L7.73844 11.2585C7.37466 11.2585 7.08884 10.9708 7.08884 10.6046Z" fill="#FF6B6B"/>
</svg>
