<svg width="18" height="18" viewBox="0 0 18 18" fill="none" xmlns="http://www.w3.org/2000/svg">
<g clip-path="url(#clip0_288_5591)">
<path d="M8.02847 0.423006C8.55333 -0.141002 9.44698 -0.141002 9.97183 0.423006L11.3449 1.89859C11.6072 2.1804 11.9787 2.33419 12.3634 2.32047L14.3781 2.2482C15.148 2.22052 15.7798 2.8523 15.7521 3.62222L15.6798 5.63687C15.6661 6.02159 15.8199 6.39315 16.1017 6.65543L17.5773 8.02847C18.1413 8.55333 18.1413 9.44698 17.5773 9.97183L16.1017 11.3449C15.8199 11.6072 15.6661 11.9787 15.6798 12.3634L15.7521 14.3781C15.7798 15.148 15.148 15.7798 14.3781 15.7521L12.3634 15.6798C11.9787 15.6661 11.6072 15.8199 11.3449 16.1017L9.97183 17.5773C9.44698 18.1413 8.55333 18.1413 8.02847 17.5773L6.65543 16.1017C6.39315 15.8199 6.02159 15.6661 5.63687 15.6798L3.62222 15.7521C2.8523 15.7798 2.22052 15.148 2.2482 14.3781L2.32047 12.3634C2.33419 11.9787 2.1804 11.6072 1.89859 11.3449L0.423006 9.97183C-0.141002 9.44698 -0.141002 8.55333 0.423006 8.02847L1.89859 6.65543C2.1804 6.39315 2.33419 6.02159 2.32047 5.63687L2.2482 3.62222C2.22052 2.8523 2.8523 2.22052 3.62222 2.2482L5.63687 2.32047C6.02159 2.33419 6.39315 2.1804 6.65543 1.89859L8.02847 0.423006ZM8.99527 3.59976C8.33324 3.59901 7.67536 3.70384 7.04605 3.90933C6.85671 3.97717 6.68832 4.09458 6.55972 4.24918C6.43128 4.40371 6.34676 4.58991 6.31461 4.78824C6.28245 4.9866 6.30403 5.18992 6.37711 5.37711C6.45025 5.5643 6.5725 5.72858 6.73062 5.85269C8.96834 7.54728 9.14652 10.4624 7.0939 12.3371C6.94914 12.4758 6.84368 12.651 6.78922 12.8439C6.73479 13.0368 6.73349 13.2409 6.78433 13.4347C6.8352 13.6286 6.93712 13.8051 7.07926 13.9464C7.22141 14.0878 7.39869 14.1895 7.59293 14.2394C8.33462 14.4166 9.10393 14.4476 9.85758 14.3312C11.0235 14.1338 12.094 13.5633 12.9074 12.7052C13.7208 11.8472 14.2328 10.7478 14.3673 9.5734C14.4507 8.81887 14.3731 8.05524 14.1388 7.33316C13.9044 6.61099 13.5187 5.94688 13.008 5.38492C12.5011 4.82361 11.8818 4.37493 11.1906 4.06754C10.4995 3.76021 9.75168 3.60034 8.99527 3.59976Z" fill="#FFF001"/>
</g>
<defs>
<clipPath id="clip0_288_5591">
<rect width="18" height="18" fill="white"/>
</clipPath>
</defs>
</svg>
